# xmcd
#
# Track frame offsets:
#	150
#	16589
#	32625
#	46342
#	62455
#	76310
#	94904
#	110355
#	126028
#	143214
#	161654
#
# Disc length: 2366 seconds
#
# Revision: 1
# Processed by: cddbd v1.5.2PL0 Copyright (c) Steve Scherf et al.
# Submitted via: audiograbber 1.83.01
#
DISCID=81093c0b
DTITLE=The Wind And The Wave - From The Wreckage
DYEAR=2014
DGENRE=Alt Country
TTITLE0=My Mama Said Be Carefull Where You Lay Your Head
TTITLE1=From The Wreckage Build A Home
TTITLE2=With Your Two Hands
TTITLE3=It's A Longer Road To California Than You Thought
TTITLE4=Loyal Friend And Thoughtful Lover
TTITLE5=Every Other Sunday Morning
TTITLE6=Raising Hands Raising Hell Raise 'Em High
TTITLE7=When That Fever Takes A Hold On You
TTITLE8=The Heart It Beats The Thunder Rolls
TTITLE9=A Husband And A Wife Should Sleep Together
TTITLE10=This House Is A Hotel
EXTD=
EXTT0=
EXTT1=
EXTT2=
EXTT3=
EXTT4=
EXTT5=
EXTT6=
EXTT7=
EXTT8=
EXTT9=
EXTT10=
PLAYORDER=
